<?xml version="1.0" encoding="UTF-8"?>
<!DOCTYPE svg PUBLIC "-//W3C//DTD SVG 1.1//EN" "http://www.w3.org/Graphics/SVG/1.1/DTD/svg11.dtd">
<svg xmlns="http://www.w3.org/2000/svg" version="1.1" width="219px" height="219px" style="shape-rendering:geometricPrecision; text-rendering:geometricPrecision; image-rendering:optimizeQuality; fill-rule:evenodd; clip-rule:evenodd" xmlns:xlink="http://www.w3.org/1999/xlink">
<g><path style="opacity:1" fill="#e0530a" d="M 94.5,-0.5 C 104.167,-0.5 113.833,-0.5 123.5,-0.5C 150.233,3.36556 172.566,15.3656 190.5,35.5C 190.738,37.4044 191.738,38.7377 193.5,39.5C 194.5,39.8333 195.167,40.5 195.5,41.5C 195.427,43.0269 196.094,44.0269 197.5,44.5C 199.326,46.1475 200.66,48.1475 201.5,50.5C 201.427,52.0269 202.094,53.0269 203.5,53.5C 204.338,53.8417 204.672,54.5084 204.5,55.5C 204.427,57.0269 205.094,58.0269 206.5,58.5C 212.657,69.8014 216.657,81.8014 218.5,94.5C 218.5,104.167 218.5,113.833 218.5,123.5C 207.833,176.167 176.167,207.833 123.5,218.5C 113.833,218.5 104.167,218.5 94.5,218.5C 79.9011,216.078 66.2345,211.078 53.5,203.5C 53.0269,202.094 52.0269,201.427 50.5,201.5C 48.1475,200.66 46.1475,199.326 44.5,197.5C 44.0269,196.094 43.0269,195.427 41.5,195.5C 40.5,195.167 39.8333,194.5 39.5,193.5C 38.7377,191.738 37.4044,190.738 35.5,190.5C 15.3656,172.566 3.36556,150.233 -0.5,123.5C -0.5,113.833 -0.5,104.167 -0.5,94.5C 1.52861,79.7476 6.52861,66.081 14.5,53.5C 15.9063,53.0269 16.573,52.0269 16.5,50.5C 18.0621,46.6082 20.3954,43.2749 23.5,40.5C 25.5869,39.4154 26.9202,37.7488 27.5,35.5C 28.5,33.8333 29.8333,32.5 31.5,31.5C 35.1002,29.5698 38.1002,26.9031 40.5,23.5C 41.2623,21.7376 42.5956,20.7376 44.5,20.5C 46.4044,20.2624 47.7377,19.2624 48.5,17.5C 50.3356,15.412 52.6689,14.0787 55.5,13.5C 57.0269,13.573 58.0269,12.9063 58.5,11.5C 63.767,8.37187 69.4337,6.03854 75.5,4.5C 78.2282,4.82943 80.5615,4.16276 82.5,2.5C 82.8333,2.5 83.1667,2.5 83.5,2.5C 86.4951,2.70621 89.1617,2.03954 91.5,0.5C 92.791,0.737305 93.791,0.403972 94.5,-0.5 Z M 128.5,16.5 C 130.599,17.6118 132.933,18.2785 135.5,18.5C 143.215,21.5194 150.882,24.8528 158.5,28.5C 158.973,29.9063 159.973,30.573 161.5,30.5C 162.262,32.2624 163.596,33.2624 165.5,33.5C 166.262,35.2624 167.596,36.2624 169.5,36.5C 206.847,73.7442 212.847,115.411 187.5,161.5C 185.738,162.262 184.738,163.596 184.5,165.5C 182.177,168.126 179.843,170.793 177.5,173.5C 174.5,175.833 171.833,178.5 169.5,181.5C 167.596,181.738 166.262,182.738 165.5,184.5C 163.596,184.738 162.262,185.738 161.5,187.5C 115.324,212.846 73.6576,206.846 36.5,169.5C 36.2624,167.596 35.2624,166.262 33.5,165.5C 33.2624,163.596 32.2624,162.262 30.5,161.5C 25.932,153.035 21.932,144.368 18.5,135.5C 18.2785,132.933 17.6118,130.599 16.5,128.5C 10.6207,89.6416 22.9541,57.8083 53.5,33C 76.2559,17.2273 101.256,11.7273 128.5,16.5 Z"/></g>
<g><path style="opacity:1" fill="#b7782f" d="M 91.5,0.5 C 89.1617,2.03954 86.4951,2.70621 83.5,2.5C 85.9052,1.2318 88.5718,0.565131 91.5,0.5 Z"/></g>
<g><path style="opacity:1" fill="#bb772d" d="M 82.5,2.5 C 80.5615,4.16276 78.2282,4.82943 75.5,4.5C 77.5994,3.38815 79.9327,2.72148 82.5,2.5 Z"/></g>
<g><path style="opacity:0.973" fill="#af7d32" d="M 58.5,11.5 C 58.0269,12.9063 57.0269,13.573 55.5,13.5C 55.9731,12.0937 56.9731,11.427 58.5,11.5 Z"/></g>
<g><path style="opacity:1" fill="#be732b" d="M 128.5,16.5 C 131.228,16.1706 133.562,16.8372 135.5,18.5C 132.933,18.2785 130.599,17.6118 128.5,16.5 Z"/></g>
<g><path style="opacity:0.91" fill="#af7e3a" d="M 48.5,17.5 C 47.7377,19.2624 46.4044,20.2624 44.5,20.5C 45.2623,18.7376 46.5956,17.7376 48.5,17.5 Z"/></g>
<g><path style="opacity:0.839" fill="#b17c33" d="M 158.5,28.5 C 160.027,28.427 161.027,29.0937 161.5,30.5C 159.973,30.573 158.973,29.9063 158.5,28.5 Z"/></g>
<g><path style="opacity:1" fill="#c17129" d="M 40.5,23.5 C 38.1002,26.9031 35.1002,29.5698 31.5,31.5C 33.8998,28.0969 36.8998,25.4302 40.5,23.5 Z"/></g>
<g><path style="opacity:0.918" fill="#af7e39" d="M 161.5,30.5 C 163.404,30.7376 164.738,31.7376 165.5,33.5C 163.596,33.2624 162.262,32.2624 161.5,30.5 Z"/></g>
<g><path style="opacity:0.984" fill="#b07d34" d="M 165.5,33.5 C 167.404,33.7376 168.738,34.7376 169.5,36.5C 167.596,36.2624 166.262,35.2624 165.5,33.5 Z"/></g>
<g><path style="opacity:0.969" fill="#ac813a" d="M 27.5,35.5 C 26.9202,37.7488 25.5869,39.4154 23.5,40.5C 24.0798,38.2512 25.4131,36.5846 27.5,35.5 Z"/></g>
<g><path style="opacity:0.973" fill="#ae7e38" d="M 190.5,35.5 C 192.262,36.2623 193.262,37.5956 193.5,39.5C 191.738,38.7377 190.738,37.4044 190.5,35.5 Z"/></g>
<g><path style="opacity:0.796" fill="#a7803c" d="M 195.5,41.5 C 196.906,41.9731 197.573,42.9731 197.5,44.5C 196.094,44.0269 195.427,43.0269 195.5,41.5 Z"/></g>
<g><path style="opacity:0.812" fill="#b07e36" d="M 16.5,50.5 C 16.573,52.0269 15.9063,53.0269 14.5,53.5C 14.427,51.9731 15.0937,50.9731 16.5,50.5 Z"/></g>
<g><path style="opacity:0.788" fill="#ad7f36" d="M 201.5,50.5 C 202.906,50.9731 203.573,51.9731 203.5,53.5C 202.094,53.0269 201.427,52.0269 201.5,50.5 Z"/></g>
<g><path style="opacity:0.573" fill="#a0893a" d="M 204.5,55.5 C 205.906,55.9731 206.573,56.9731 206.5,58.5C 205.094,58.0269 204.427,57.0269 204.5,55.5 Z"/></g>
<g><path style="opacity:1" fill="#e34e05" d="M 104.5,144.5 C 104.427,146.027 105.094,147.027 106.5,147.5C 108.167,155.833 104.833,159.167 96.5,157.5C 96.0269,156.094 95.0269,155.427 93.5,155.5C 79.2015,141.702 65.0348,127.702 51,113.5C 50.5034,111.19 50.3367,108.857 50.5,106.5C 52.2624,105.738 53.2624,104.404 53.5,102.5C 64.0796,93.4242 74.2463,83.7576 84,73.5C 84.4643,72.9056 84.631,72.2389 84.5,71.5C 85.5,69.8333 86.8333,68.5 88.5,67.5C 91.1667,66.8333 92.8333,65.1667 93.5,62.5C 96.665,59.197 100.332,58.697 104.5,61C 107.194,63.6534 108.027,66.8201 107,70.5C 97.5302,80.9706 87.6969,91.1372 77.5,101C 106.167,101.333 134.833,101.667 163.5,102C 168.833,106.667 168.833,111.333 163.5,116C 134.833,116.333 106.167,116.667 77.5,117C 86.7023,126.035 95.7023,135.202 104.5,144.5 Z"/></g>
<g><path style="opacity:0.992" fill="#c27028" d="M 93.5,62.5 C 92.8333,65.1667 91.1667,66.8333 88.5,67.5C 89.8333,65.5 91.5,63.8333 93.5,62.5 Z"/></g>
<g><path style="opacity:0.992" fill="#c46e26" d="M 84.5,71.5 C 84.631,72.2389 84.4643,72.9056 84,73.5C 74.2463,83.7576 64.0796,93.4242 53.5,102.5C 63.5,91.8333 73.8333,81.5 84.5,71.5 Z"/></g>
<g><path style="opacity:0.992" fill="#b17d32" d="M 53.5,102.5 C 53.2624,104.404 52.2624,105.738 50.5,106.5C 50.7376,104.596 51.7376,103.262 53.5,102.5 Z"/></g>
<g><path style="opacity:1" fill="#be732b" d="M 16.5,128.5 C 17.6118,130.599 18.2785,132.933 18.5,135.5C 16.8372,133.562 16.1706,131.228 16.5,128.5 Z"/></g>
<g><path style="opacity:0.863" fill="#b17b33" d="M 104.5,144.5 C 105.906,144.973 106.573,145.973 106.5,147.5C 105.094,147.027 104.427,146.027 104.5,144.5 Z"/></g>
<g><path style="opacity:0.867" fill="#b17b34" d="M 93.5,155.5 C 95.0269,155.427 96.0269,156.094 96.5,157.5C 94.9731,157.573 93.9731,156.906 93.5,155.5 Z"/></g>
<g><path style="opacity:0.922" fill="#b07d39" d="M 30.5,161.5 C 32.2624,162.262 33.2624,163.596 33.5,165.5C 31.7376,164.738 30.7376,163.404 30.5,161.5 Z"/></g>
<g><path style="opacity:0.918" fill="#af7d39" d="M 187.5,161.5 C 187.262,163.404 186.262,164.738 184.5,165.5C 184.738,163.596 185.738,162.262 187.5,161.5 Z"/></g>
<g><path style="opacity:0.988" fill="#b17c33" d="M 33.5,165.5 C 35.2624,166.262 36.2624,167.596 36.5,169.5C 34.7376,168.738 33.7376,167.404 33.5,165.5 Z"/></g>
<g><path style="opacity:0.984" fill="#c07129" d="M 177.5,173.5 C 175.833,177.167 173.167,179.833 169.5,181.5C 171.833,178.5 174.5,175.833 177.5,173.5 Z"/></g>
<g><path style="opacity:0.937" fill="#b37b34" d="M 169.5,181.5 C 168.738,183.262 167.404,184.262 165.5,184.5C 166.262,182.738 167.596,181.738 169.5,181.5 Z"/></g>
<g><path style="opacity:0.925" fill="#b07d38" d="M 165.5,184.5 C 164.738,186.262 163.404,187.262 161.5,187.5C 162.262,185.738 163.596,184.738 165.5,184.5 Z"/></g>
<g><path style="opacity:0.965" fill="#ae8138" d="M 35.5,190.5 C 37.4044,190.738 38.7377,191.738 39.5,193.5C 37.5956,193.262 36.2623,192.262 35.5,190.5 Z"/></g>
<g><path style="opacity:0.8" fill="#a9843a" d="M 41.5,195.5 C 43.0269,195.427 44.0269,196.094 44.5,197.5C 42.9731,197.573 41.9731,196.906 41.5,195.5 Z"/></g>
<g><path style="opacity:0.792" fill="#ad7f36" d="M 50.5,201.5 C 52.0269,201.427 53.0269,202.094 53.5,203.5C 51.9731,203.573 50.9731,202.906 50.5,201.5 Z"/></g>
</svg>
